<?xml version="1.0" encoding="UTF-8" standalone="yes"?>
<svg xmlns="http://www.w3.org/2000/svg" height="452" width="452">
<script type="text/ecmascript">
      <![CDATA[
        var shown = 1;
        function click() {
             var seq = document.getElementById("seq");
             if (shown==1) {
               seq.setAttribute("style", "visibility: hidden");
               shown = 0;
             } else {
               seq.setAttribute("style", "visibility: visible");
               shown = 1;
             }
         }
        ]]>
</script>
  <rect style="stroke: white; fill: white" height="452" x="0" y="0" width="452" onclick="click(evt)" />
  <g transform="scale(0.552758,0.552758) translate(564.436523,340.046173)">
    <polyline style="stroke: black; fill: none; stroke-width: 1.5" id="outline" points="
      -49.807,-11.365
      -58.006,-6.337
      -65.220,0.015
      -71.241,7.502
      -75.891,15.904
      -79.036,24.972
      -80.583,34.440
      -80.491,44.028
      -95.105,47.407
      -109.720,50.786
      -123.021,42.680
      -137.794,46.315
      -145.440,59.045
      -160.055,62.424
      -174.669,65.804
      -189.284,69.183
      -203.898,72.562
      -218.512,75.941
      -227.750,62.811
      -241.280,54.244
      -257.022,51.519
      -272.570,55.026
      -285.556,64.199
      -294.017,77.615
      -296.685,93.211
      -311.364,96.301
      -326.042,99.390
      -340.721,102.480
      -355.399,105.570
      -370.077,108.659
      -384.756,111.749
      -399.854,107.020
      -410.714,117.213
      -425.393,120.303
      -436.281,107.894
      -451.849,102.684
      -467.830,106.001
      -479.898,116.851
      -484.834,132.212
      -499.570,135.011
      -514.307,137.810
      -529.043,140.609
      -544.339,134.696
      -556.937,145.195
      -553.876,161.306
      -538.307,166.455
      -526.244,155.346
      -511.508,152.547
      -496.771,149.748
      -482.034,146.948
      -473.799,157.879
      -461.594,164.214
      -447.783,164.664
      -435.070,159.082
      -425.968,148.510
      -422.303,134.981
      -407.624,131.891
      -393.576,136.841
      -381.666,126.427
      -366.988,123.338
      -352.309,120.248
      -337.631,117.158
      -322.952,114.069
      -308.274,110.979
      -293.596,107.889
      -286.099,119.784
      -274.963,128.418
      -261.518,132.732
      -247.378,132.188
      -234.248,126.831
      -223.720,117.287
      -217.075,104.692
      -215.133,90.555
      -200.519,87.176
      -185.904,83.797
      -171.290,80.418
      -156.676,77.039
      -142.061,73.660
      -129.603,81.742
      -114.733,78.523
      -106.341,65.401
      -91.726,62.022
      -77.112,58.643
      -66.117,76.647
      -49.214,89.314
      -28.794,94.826
      -7.759,92.379
      10.897,82.300
      24.510,66.007
      31.127,45.805
      46.126,45.657
      61.126,45.509
      76.125,45.361
      92.203,67.612
      125.097,64.637
      137.109,73.621
      149.122,82.604
      161.134,91.588
      173.146,100.572
      185.069,109.674
      190.727,125.066
      206.930,127.595
      217.010,114.659
      210.596,99.565
      194.288,97.842
      190.927,91.215
      182.130,88.560
      170.118,79.576
      158.105,70.592
      146.093,61.608
      134.081,52.625
      134.081,45.125
      148.930,47.250
      163.778,49.375
      178.627,51.500
      193.476,53.625
      208.325,55.750
      222.305,61.185
      236.736,57.092
      245.780,45.125
      245.781,30.125
      236.737,18.158
      222.306,14.064
      208.325,19.499
      193.476,21.624
      178.627,23.749
      163.778,25.875
      148.930,28.000
      134.081,30.125
      134.081,22.625
      149.522,24.681
      161.576,15.399
      163.441,0.667
      179.780,-0.735
      186.490,-15.698
      176.669,-28.831
      160.419,-26.623
      154.457,-11.346
      139.798,-13.719
      127.488,-4.780
      125.097,10.613
      111.625,5.124
      98.018,5.524
      86.584,11.007
      78.982,19.965
      75.977,30.362
      60.977,30.510
      45.978,30.658
      30.979,30.806
      28.756,21.396
      24.959,12.508
      19.702,4.403
      13.140,-2.680
      5.469,-8.535
      -3.086,-12.991
      -12.272,-15.918
      -21.819,-17.232
      -31.444,-16.895
    " />
    <g style="stroke: black; stroke-width: 1; fill: none;" id="pairs">
      <line id="8,83" x1="-80.49083" y1="44.02808" x2="-77.11175" y2="58.64251" />
      <line id="9,82" x1="-95.10527" y1="47.40715" x2="-91.72619" y2="62.02159" />
      <line id="10,81" x1="-109.71970" y1="50.78623" x2="-106.34063" y2="65.40067" />
      <line id="13,78" x1="-145.44026" y1="59.04536" x2="-142.06119" y2="73.65981" />
      <line id="14,77" x1="-160.05470" y1="62.42444" x2="-156.67561" y2="77.03888" />
      <line id="15,76" x1="-174.66914" y1="65.80352" x2="-171.29005" y2="80.41795" />
      <line id="16,75" x1="-189.28357" y1="69.18259" x2="-185.90450" y2="83.79704" />
      <line id="17,74" x1="-203.89801" y1="72.56168" x2="-200.51894" y2="87.17612" />
      <line id="18,73" x1="-218.51245" y1="75.94075" x2="-215.13338" y2="90.55519" />
      <line id="25,65" x1="-296.68549" y1="93.21088" x2="-293.59579" y2="107.88923" />
      <line id="26,64" x1="-311.36383" y1="96.30057" x2="-308.27414" y2="110.97891" />
      <line id="27,63" x1="-326.04218" y1="99.39024" x2="-322.95248" y2="114.06859" />
      <line id="28,62" x1="-340.72052" y1="102.47992" x2="-337.63083" y2="117.15827" />
      <line id="29,61" x1="-355.39886" y1="105.56960" x2="-352.30920" y2="120.24795" />
      <line id="30,60" x1="-370.07721" y1="108.65928" x2="-366.98755" y2="123.33763" />
      <line id="31,59" x1="-384.75555" y1="111.74896" x2="-381.66589" y2="126.42731" />
      <line id="33,57" x1="-410.71417" y1="117.21304" x2="-407.62448" y2="131.89139" />
      <line id="34,56" x1="-425.39252" y1="120.30273" x2="-422.30283" y2="134.98108" />
      <line id="39,50" x1="-484.83353" y1="132.21193" x2="-482.03445" y2="146.94846" />
      <line id="40,49" x1="-499.57007" y1="135.01100" x2="-496.77100" y2="149.74753" />
      <line id="41,48" x1="-514.30658" y1="137.81007" x2="-511.50751" y2="152.54660" />
      <line id="42,47" x1="-529.04309" y1="140.60915" x2="-526.24402" y2="155.34567" />
      <line id="90,149" x1="31.12700" y1="45.80550" x2="30.97881" y2="30.80623" />
      <line id="91,148" x1="46.12627" y1="45.65731" x2="45.97808" y2="30.65804" />
      <line id="92,147" x1="61.12553" y1="45.50912" x2="60.97735" y2="30.50986" />
      <line id="93,146" x1="76.12480" y1="45.36094" x2="75.97662" y2="30.36167" />
      <line id="95,111" x1="125.09731" y1="64.63685" x2="134.08107" y2="52.62469" />
      <line id="96,110" x1="137.10945" y1="73.62062" x2="146.09323" y2="61.60847" />
      <line id="97,109" x1="149.12161" y1="82.60439" x2="158.10538" y2="70.59224" />
      <line id="98,108" x1="161.13376" y1="91.58817" x2="170.11754" y2="79.57601" />
      <line id="99,107" x1="173.14592" y1="100.57194" x2="182.12968" y2="88.55978" />
      <line id="100,105" x1="185.06874" y1="109.67393" x2="194.28809" y2="97.84162" />
      <line id="130,141" x1="134.08107" y1="22.62469" x2="125.09731" y2="10.61254" />
      <line id="133,138" x1="163.44113" y1="0.66660" x2="154.45737" y2="-11.34555" />
    </g>
    <g style="font-family: SansSerif" transform="translate(-4.6, 4)" id="seq">
      <text x="-49.807" y="-11.365">U</text>
      <text x="-58.006" y="-6.337">U</text>
      <text x="-65.220" y="0.015">A</text>
      <text x="-71.241" y="7.502">G</text>
      <text x="-75.891" y="15.904">U</text>
      <text x="-79.036" y="24.972">U</text>
      <text x="-80.583" y="34.440">C</text>
      <text x="-80.491" y="44.028">C</text>
      <text x="-95.105" y="47.407">G</text>
      <text x="-109.720" y="50.786">G</text>
      <text x="-123.021" y="42.680">U</text>
      <text x="-137.794" y="46.315">G</text>
      <text x="-145.440" y="59.045">C</text>
      <text x="-160.055" y="62.424">G</text>
      <text x="-174.669" y="65.804">U</text>
      <text x="-189.284" y="69.183">U</text>
      <text x="-203.898" y="72.562">U</text>
      <text x="-218.512" y="75.941">G</text>
      <text x="-227.750" y="62.811">U</text>
      <text x="-241.280" y="54.244">U</text>
      <text x="-257.022" y="51.519">A</text>
      <text x="-272.570" y="55.026">A</text>
      <text x="-285.556" y="64.199">A</text>
      <text x="-294.017" y="77.615">C</text>
      <text x="-296.685" y="93.211">A</text>
      <text x="-311.364" y="96.301">U</text>
      <text x="-326.042" y="99.390">G</text>
      <text x="-340.721" y="102.480">A</text>
      <text x="-355.399" y="105.570">A</text>
      <text x="-370.077" y="108.659">U</text>
      <text x="-384.756" y="111.749">A</text>
      <text x="-399.854" y="107.020">U</text>
      <text x="-410.714" y="117.213">G</text>
      <text x="-425.393" y="120.303">C</text>
      <text x="-436.281" y="107.894">C</text>
      <text x="-451.849" y="102.684">A</text>
      <text x="-467.830" y="106.001">A</text>
      <text x="-479.898" y="116.851">A</text>
      <text x="-484.834" y="132.212">C</text>
      <text x="-499.570" y="135.011">C</text>
      <text x="-514.307" y="137.810">U</text>
      <text x="-529.043" y="140.609">G</text>
      <text x="-544.339" y="134.696">U</text>
      <text x="-556.937" y="145.195">A</text>
      <text x="-553.876" y="161.306">A</text>
      <text x="-538.307" y="166.455">U</text>
      <text x="-526.244" y="155.346">C</text>
      <text x="-511.508" y="152.547">A</text>
      <text x="-496.771" y="149.748">G</text>
      <text x="-482.034" y="146.948">G</text>
      <text x="-473.799" y="157.879">G</text>
      <text x="-461.594" y="164.214">C</text>
      <text x="-447.783" y="164.664">G</text>
      <text x="-435.070" y="159.082">A</text>
      <text x="-425.968" y="148.510">A</text>
      <text x="-422.303" y="134.981">G</text>
      <text x="-407.624" y="131.891">C</text>
      <text x="-393.576" y="136.841">U</text>
      <text x="-381.666" y="126.427">U</text>
      <text x="-366.988" y="123.338">G</text>
      <text x="-352.309" y="120.248">U</text>
      <text x="-337.631" y="117.158">U</text>
      <text x="-322.952" y="114.069">U</text>
      <text x="-308.274" y="110.979">A</text>
      <text x="-293.596" y="107.889">U</text>
      <text x="-286.099" y="119.784">U</text>
      <text x="-274.963" y="128.418">U</text>
      <text x="-261.518" y="132.732">C</text>
      <text x="-247.378" y="132.188">A</text>
      <text x="-234.248" y="126.831">C</text>
      <text x="-223.720" y="117.287">U</text>
      <text x="-217.075" y="104.692">C</text>
      <text x="-215.133" y="90.555">C</text>
      <text x="-200.519" y="87.176">A</text>
      <text x="-185.904" y="83.797">G</text>
      <text x="-171.290" y="80.418">A</text>
      <text x="-156.676" y="77.039">U</text>
      <text x="-142.061" y="73.660">G</text>
      <text x="-129.603" y="81.742">U</text>
      <text x="-114.733" y="78.523">G</text>
      <text x="-106.341" y="65.401">C</text>
      <text x="-91.726" y="62.022">U</text>
      <text x="-77.112" y="58.643">G</text>
      <text x="-66.117" y="76.647">A</text>
      <text x="-49.214" y="89.314">C</text>
      <text x="-28.794" y="94.826">U</text>
      <text x="-7.759" y="92.379">U</text>
      <text x="10.897" y="82.300">C</text>
      <text x="24.510" y="66.007">U</text>
      <text x="31.127" y="45.805">G</text>
      <text x="46.126" y="45.657">U</text>
      <text x="61.126" y="45.509">G</text>
      <text x="76.125" y="45.361">A</text>
      <text x="92.203" y="67.612">U</text>
      <text x="125.097" y="64.637">U</text>
      <text x="137.109" y="73.621">U</text>
      <text x="149.122" y="82.604">C</text>
      <text x="161.134" y="91.588">C</text>
      <text x="173.146" y="100.572">C</text>
      <text x="185.069" y="109.674">C</text>
      <text x="190.727" y="125.066">A</text>
      <text x="206.930" y="127.595">A</text>
      <text x="217.010" y="114.659">A</text>
      <text x="210.596" y="99.565">U</text>
      <text x="194.288" y="97.842">G</text>
      <text x="190.927" y="91.215">U</text>
      <text x="182.130" y="88.560">G</text>
      <text x="170.118" y="79.576">G</text>
      <text x="158.105" y="70.592">G</text>
      <text x="146.093" y="61.608">A</text>
      <text x="134.081" y="52.625">A</text>
      <text x="134.081" y="45.125">A</text>
      <text x="148.930" y="47.250">C</text>
      <text x="163.778" y="49.375">U</text>
      <text x="178.627" y="51.500">C</text>
      <text x="193.476" y="53.625">G</text>
      <text x="208.325" y="55.750">A</text>
      <text x="222.305" y="61.185">C</text>
      <text x="236.736" y="57.092">U</text>
      <text x="245.780" y="45.125">G</text>
      <text x="245.781" y="30.125">C</text>
      <text x="236.737" y="18.158">A</text>
      <text x="222.306" y="14.064">U</text>
      <text x="208.325" y="19.499">A</text>
      <text x="193.476" y="21.624">A</text>
      <text x="178.627" y="23.749">U</text>
      <text x="163.778" y="25.875">U</text>
      <text x="148.930" y="28.000">U</text>
      <text x="134.081" y="30.125">A</text>
      <text x="134.081" y="22.625">G</text>
      <text x="149.522" y="24.681">U</text>
      <text x="161.576" y="15.399">G</text>
      <text x="163.441" y="0.667">G</text>
      <text x="179.780" y="-0.735">G</text>
      <text x="186.490" y="-15.698">G</text>
      <text x="176.669" y="-28.831">G</text>
      <text x="160.419" y="-26.623">A</text>
      <text x="154.457" y="-11.346">C</text>
      <text x="139.798" y="-13.719">U</text>
      <text x="127.488" y="-4.780">G</text>
      <text x="125.097" y="10.613">C</text>
      <text x="111.625" y="5.124">G</text>
      <text x="98.018" y="5.524">U</text>
      <text x="86.584" y="11.007">U</text>
      <text x="78.982" y="19.965">C</text>
      <text x="75.977" y="30.362">U</text>
      <text x="60.977" y="30.510">C</text>
      <text x="45.978" y="30.658">A</text>
      <text x="30.979" y="30.806">C</text>
      <text x="28.756" y="21.396">U</text>
      <text x="24.959" y="12.508">U</text>
      <text x="19.702" y="4.403">U</text>
      <text x="13.140" y="-2.680">C</text>
      <text x="5.469" y="-8.535">U</text>
      <text x="-3.086" y="-12.991">C</text>
      <text x="-12.272" y="-15.918">A</text>
      <text x="-21.819" y="-17.232">U</text>
      <text x="-31.444" y="-16.895">G</text>
    </g>
  </g>
</svg>
